<?xml version="1.0" encoding="utf-8"?>
<!-- Generator: Adobe Illustrator 26.0.2, SVG Export Plug-In . SVG Version: 6.00 Build 0)  -->
<svg version="1.1" id="Layer_1" xmlns="http://www.w3.org/2000/svg" xmlns:xlink="http://www.w3.org/1999/xlink" x="0px" y="0px"
	 viewBox="0 0 536 540" style="enable-background:new 0 0 536 540;" xml:space="preserve">
<g>
	<path d="M364.2,475.5c-3.5,1.8-8.8,3.5-12.2,5.2c3.5-5.2,7-8.8,8.8-14l-17.5-42c-15.8,35-36.8,59.5-57.8,68.2v-84
		c17.5,0,36.8,1.8,54.2,5.2L324,377.5c-12.2-1.8-24.5-1.8-38.5-3.5v-87.5H373c0,12.2-1.8,24.5-3.5,35l33.2,14
		c1.8-15.8,3.5-33.2,3.5-49h87.5c-1.8,28-8.8,54.2-21,78.8l31.5,14c15.8-35,24.5-71.8,24.5-110.2c0-75.2-33.2-147-89.2-196
		C394,29.2,332.8,6.5,268,6.5S142,29.2,94.8,71.2C38.8,122,5.5,193.8,5.5,269s33.2,147,89.2,196c47.2,43.8,108.5,66.5,173.2,66.5
		c38.5,0,75.2-8.8,110.2-24.5L364.2,475.5z M446.5,127.2c28,35,45.5,78.8,49,124.2H408c-1.8-36.8-7-71.8-15.8-103.2
		C411.5,141.2,430.8,136,446.5,127.2z M418.5,99.2l1.8,1.8c-12.2,5.2-24.5,10.5-38.5,14C373,94,362.5,74.8,352,59
		C376.5,67.8,399.2,81.8,418.5,99.2z M285.5,45c22.8,8.8,45.5,36.8,61.2,77c-19.2,3.5-40.2,5.2-61.2,7V45z M285.5,164
		c24.5,0,49-3.5,73.5-8.8c7,28,12.2,59.5,14,96.2h-87.5V164z M117.5,97.5C136.8,80,159.5,66,184,57.2c-12.2,15.8-21,35-29.8,56
		c-14-3.5-26.2-7-38.5-12.2C115.8,99.2,117.5,99.2,117.5,97.5z M89.5,127.2c15.8,7,33.2,14,52.5,19.2c-7,33.2-12.2,68.2-14,105H40.5
		C45.8,206,61.5,162.2,89.5,127.2z M89.5,410.8c-28-35-45.5-78.8-49-124.2H128c1.8,36.8,7,71.8,15.8,103.2
		C124.5,396.8,105.2,402,89.5,410.8z M117.5,438.8l-1.8-1.8c12.2-5.2,24.5-10.5,38.5-14c8.8,21,19.2,40.2,29.8,56
		C159.5,470.2,136.8,456.2,117.5,438.8z M250.5,493c-22.8-8.8-45.5-36.8-61.2-77c19.2-3.5,40.2-5.2,61.2-7V493z M250.5,374
		c-24.5,0-49,3.5-73.5,8.8c-7-28-12.2-61.2-14-96.2h87.5V374z M250.5,251.5H163c1.8-35,7-68.2,14-96.2c22.8,5.2,47.2,7,73.5,8.8
		V251.5z M250.5,129c-21,0-42-3.5-61.2-7c15.8-40.2,38.5-68.2,61.2-77V129z"/>
	<path d="M530.5,507l-78.8-78.8l77-19.2l-208.2-87.5L408,529.8l19.2-77l78.8,78.8L530.5,507z"/>
</g>
</svg>
